<?xml version="1.0" encoding="utf-8"?>
<!-- Generator: Adobe Illustrator 23.0.0, SVG Export Plug-In . SVG Version: 6.00 Build 0)  -->
<svg version="1.1" id="Layer_1" xmlns="http://www.w3.org/2000/svg" xmlns:xlink="http://www.w3.org/1999/xlink" x="0px" y="0px"
	 viewBox="0 0 1920 1005" style="enable-background:new 0 0 1920 1005;" xml:space="preserve">
<style type="text/css">
	.st0{opacity:8.000000e-02;fill:#AE9CFF;enable-background:new    ;}
	.st1{fill:#AE9CFF;}
	.st2{fill:url(#SVGID_1_);}
	.st3{opacity:5.000000e-02;fill:#FFFFFF;enable-background:new    ;}
	.st4{fill:none;stroke:#6CC0F0;stroke-width:3;stroke-miterlimit:10;}
	.st5{fill:#E8DBD8;}
	.st6{fill:#A794FF;}
	.st7{fill:#FFC1B1;}
	.st8{fill:#FF7576;}
</style>
<title>BG Shape Illustator</title>
<path class="st0" d="M0,1005h608.4c0,0-270-563.8-608.4-580.9V1005z"/>
<path class="st1" d="M0,85v920c200.1-39.6,402.1-68.9,605.3-87.8c499-46.4,944.2-24.3,1314.8,22.8V85H0z"/>
<radialGradient id="SVGID_1_" cx="960" cy="1202" r="752.7284" gradientTransform="matrix(1 0 0 -1 0 1662)" gradientUnits="userSpaceOnUse">
	<stop  offset="0" style="stop-color:#7562F4"/>
	<stop  offset="1" style="stop-color:#4734C0"/>
</radialGradient>
<path class="st2" d="M0,0v920c0,0,974-234,1920,0V0H0z"/>
<path class="st3" d="M0,0h440.3c0,0-115.5-1.3-214.1,169.8C226.1,169.8,138,301,0,281V0z"/>
<path class="st3" d="M1118,0c0,0-203.1,309.2-128.4,495.2s276.4,199.2,545,214.9s385.4-83.8,385.4-83.8V0H1118z"/>
<path class="st4" d="M239,208.7c-2.5-2.6-6.3-3.5-9.4-5.3c-4.3-2.6-8-5.9-11.1-9.8c-6.2-7.6-10.2-16.6-14.5-25.3
	c-2.8-5.8-6.3-15.9-12.9-18.4c-12.4-4.5-10.3,20.9-9.7,27.3c1,11,5.7,21.4,13.3,29.5c9.2,9.6,26.8,19,40.4,13.6
	C240.2,218.3,243.4,213.4,239,208.7z"/>
<path class="st5" d="M249.2,661.9c-0.3,0.2-0.5,0.6-0.5,1c-0.3,6.9,1.4,14,1.9,20.9c0.5,6.2,0.6,12.5,1.6,18.6
	c0,0.2,0.2,0.4,0.4,0.5l-0.1,0.1c-1.1,1,0.2,2.8,1.5,2.1c13.5-8.1,25.1-20.1,35.4-31.8c0.7-0.7,0.8-2,0-2.7
	c-0.3-0.3-0.8-0.5-1.2-0.6c-12.8-1.5-24.7-4.9-36.9-9.3c-0.8-0.3-1.6,0-1.9,0.8C249.2,661.7,249.2,661.8,249.2,661.9z M284.2,673.4
	c-9.5,10.3-20,19.1-30.3,28.4c0.9-6.8,0.4-13.7-0.1-20.5c-0.4-5.4-0.5-11.2-1.8-16.5C262.4,669.1,273.2,671.9,284.2,673.4
	L284.2,673.4z"/>
<path class="st6" d="M253.2,692.9c5.2,0.2,9.3,4.5,9.1,9.7s-4.5,9.3-9.7,9.1s-9.3-4.5-9.1-9.7l0,0l0,0
	C243.7,696.8,248,692.8,253.2,692.9z"/>
<path class="st6" d="M286.7,660.8c5.2,0.2,9.3,4.5,9.1,9.7c-0.2,5.2-4.5,9.3-9.7,9.1s-9.3-4.5-9.1-9.7l0,0l0,0
	C277.2,664.7,281.5,660.6,286.7,660.8z"/>
<path class="st6" d="M250.4,654.4c5.2,0.2,9.3,4.5,9.1,9.7s-4.5,9.3-9.7,9.1s-9.3-4.5-9.1-9.7l0,0l0,0
	C240.9,658.4,245.2,654.3,250.4,654.4z"/>
<path class="st7" d="M741.5,176.2c1,2.5-0.2,5.4-2.7,6.4s-5.4-0.2-6.4-2.7s0.2-5.4,2.7-6.4c0.6-0.2,1.3-0.4,1.9-0.4
	C739,173.1,740.8,174.3,741.5,176.2z"/>
<path class="st8" d="M769.1,195c1,2.5-0.2,5.4-2.7,6.4s-5.4-0.2-6.4-2.7s0.2-5.4,2.7-6.4c0.6-0.2,1.3-0.4,1.9-0.4
	C766.6,191.9,768.3,193.2,769.1,195z"/>
</svg>
